<?xml version="1.0" encoding="UTF-8"?>
<svg xmlns="http://www.w3.org/2000/svg" xmlns:xlink="http://www.w3.org/1999/xlink" width="512px" height="512px" viewBox="0 0 512 369" version="1.1">
<g id="surface1">
<path style=" stroke:none;fill-rule:nonzero;fill:rgb(0.784314%,0.784314%,0.784314%);fill-opacity:1;" d="M 0 0 C 168.960938 0 337.921875 0 512 0 C 512 121.769531 512 243.539062 512 369 C 343.039062 369 174.078125 369 0 369 C 0 247.230469 0 125.460938 0 0 Z M 0 0 "/>
<path style=" stroke:none;fill-rule:nonzero;fill:rgb(99.607843%,99.607843%,99.607843%);fill-opacity:1;" d="M 205.015625 188.882812 C 206.597656 189.625 207.777344 190.414062 209.113281 191.539062 C 209.847656 192.144531 209.847656 192.144531 210.59375 192.765625 C 211.113281 193.203125 211.636719 193.644531 212.171875 194.097656 C 216.710938 197.855469 221.308594 201.511719 226.011719 205.066406 C 229.628906 207.800781 233.214844 210.550781 236.710938 213.4375 C 237.375 213.976562 238.042969 214.515625 238.726562 215.074219 C 240.046875 216.160156 241.359375 217.257812 242.652344 218.378906 C 250.609375 225.730469 250.609375 225.730469 260.515625 229.253906 C 266.726562 228.5 270.71875 224.023438 275.019531 219.875 C 277.242188 217.8125 279.644531 216.003906 282.0625 214.171875 C 286.21875 210.972656 290.117188 207.574219 293.96875 204.011719 C 297.421875 200.882812 301.050781 197.984375 304.6875 195.078125 C 305.441406 194.472656 306.199219 193.867188 306.976562 193.242188 C 308.828125 191.761719 310.683594 190.285156 312.539062 188.808594 C 315.0625 189.917969 316.757812 191.25 318.703125 193.191406 C 319.285156 193.765625 319.867188 194.339844 320.464844 194.933594 C 321.085938 195.554688 321.707031 196.175781 322.34375 196.816406 C 322.984375 197.453125 323.625 198.089844 324.285156 198.746094 C 325.636719 200.09375 326.984375 201.441406 328.332031 202.792969 C 330.402344 204.867188 332.480469 206.933594 334.5625 208.996094 C 335.871094 210.304688 337.179688 211.613281 338.492188 212.925781 C 339.117188 213.546875 339.742188 214.167969 340.386719 214.804688 C 341.246094 215.667969 341.246094 215.667969 342.117188 216.550781 C 342.878906 217.308594 342.878906 217.308594 343.652344 218.085938 C 344.734375 219.363281 344.734375 219.363281 344.734375 220.929688 C 345.253906 220.929688 345.773438 220.929688 346.308594 220.929688 C 346.308594 221.445312 346.308594 221.964844 346.308594 222.496094 C 346.824219 222.496094 347.34375 222.496094 347.878906 222.496094 C 349.035156 223.667969 349.035156 223.667969 350.375 225.277344 C 353.101562 228.472656 355.972656 231.457031 358.957031 234.410156 C 359.484375 234.9375 360.011719 235.460938 360.558594 236.003906 C 361.691406 237.132812 362.828125 238.261719 363.96875 239.390625 C 365.773438 241.183594 367.574219 242.976562 369.375 244.769531 C 373.203125 248.578125 377.03125 252.382812 380.859375 256.183594 C 385.300781 260.597656 389.738281 265.007812 394.171875 269.425781 C 395.941406 271.183594 397.710938 272.9375 399.480469 274.695312 C 400.574219 275.78125 401.667969 276.871094 402.761719 277.957031 C 403.246094 278.4375 403.730469 278.917969 404.230469 279.414062 C 406.609375 281.789062 408.894531 284.203125 411.09375 286.742188 C 413.726562 289.78125 416.507812 292.628906 419.367188 295.449219 C 419.886719 295.96875 420.410156 296.484375 420.945312 297.019531 C 422.066406 298.132812 423.1875 299.242188 424.3125 300.351562 C 426.085938 302.109375 427.855469 303.867188 429.625 305.628906 C 434.65625 310.625 439.691406 315.621094 444.726562 320.613281 C 447.816406 323.671875 450.902344 326.738281 453.988281 329.808594 C 455.164062 330.976562 456.339844 332.140625 457.519531 333.304688 C 459.15625 334.925781 460.792969 336.550781 462.425781 338.175781 C 463.160156 338.902344 463.160156 338.902344 463.910156 339.640625 C 467.238281 342.96875 467.238281 342.96875 467.238281 344.714844 C 467.757812 344.714844 468.277344 344.714844 468.808594 344.714844 C 468.808594 345.230469 468.808594 345.746094 468.808594 346.28125 C 327.835938 346.28125 186.863281 346.28125 41.621094 346.28125 C 46.929688 340.101562 46.929688 340.101562 49.492188 337.539062 C 50.050781 336.980469 50.609375 336.421875 51.183594 335.847656 C 51.753906 335.28125 52.320312 334.71875 52.90625 334.136719 C 53.472656 333.574219 54.035156 333.007812 54.613281 332.425781 C 57.25 329.800781 59.90625 327.246094 62.734375 324.832031 C 67.519531 320.71875 71.847656 316.128906 76.253906 311.625 C 77.265625 310.605469 77.265625 310.605469 78.300781 309.558594 C 79.214844 308.628906 79.214844 308.628906 80.148438 307.675781 C 81.667969 306.324219 81.667969 306.324219 83.238281 306.324219 C 83.5 305.550781 83.757812 304.773438 84.023438 303.972656 C 85.1875 302.832031 85.1875 302.832031 86.707031 301.597656 C 91.644531 297.417969 96.078125 292.738281 100.597656 288.125 C 101.273438 287.441406 101.949219 286.757812 102.644531 286.054688 C 103.253906 285.433594 103.863281 284.8125 104.492188 284.171875 C 106.011719 282.820312 106.011719 282.820312 107.582031 282.820312 C 107.582031 282.304688 107.582031 281.789062 107.582031 281.253906 C 108.679688 280.175781 108.679688 280.175781 110.234375 278.90625 C 114.285156 275.464844 117.984375 271.714844 121.71875 267.9375 C 129.167969 260.390625 129.167969 260.390625 132.515625 257.554688 C 137.574219 253.226562 142.164062 248.375 146.847656 243.648438 C 157.738281 232.664062 157.738281 232.664062 162.570312 228.570312 C 166.132812 225.417969 169.417969 221.960938 172.761719 218.578125 C 181.011719 210.230469 181.011719 210.230469 184.578125 207.195312 C 187.0625 205.078125 189.34375 202.828125 191.621094 200.488281 C 192.292969 199.792969 192.96875 199.101562 193.664062 198.386719 C 195.058594 196.945312 196.449219 195.496094 197.835938 194.042969 C 198.503906 193.355469 199.175781 192.671875 199.863281 191.96875 C 200.464844 191.339844 201.066406 190.714844 201.6875 190.070312 C 203.386719 188.808594 203.386719 188.808594 205.015625 188.882812 Z M 205.015625 188.882812 "/>
<path style=" stroke:none;fill-rule:nonzero;fill:rgb(99.607843%,99.607843%,99.607843%);fill-opacity:1;" d="M 43.976562 22.71875 C 183.394531 22.71875 322.8125 22.71875 466.453125 22.71875 C 466.453125 23.238281 466.453125 23.753906 466.453125 24.285156 C 465.285156 25.347656 464.0625 26.347656 462.820312 27.324219 C 459.261719 30.164062 455.769531 33.0625 452.320312 36.039062 C 449.097656 38.808594 445.859375 41.542969 442.550781 44.214844 C 438.542969 47.460938 434.652344 50.832031 430.761719 54.214844 C 427.90625 56.691406 425.027344 59.125 422.085938 61.5 C 417.113281 65.519531 412.308594 69.726562 407.480469 73.917969 C 398.605469 81.605469 389.695312 89.269531 380.5625 96.65625 C 376.542969 99.921875 372.632812 103.308594 368.722656 106.707031 C 365.871094 109.183594 362.988281 111.617188 360.050781 113.992188 C 356.097656 117.183594 352.253906 120.496094 348.417969 123.832031 C 344.820312 126.953125 341.195312 130.042969 337.550781 133.109375 C 334.398438 135.757812 331.269531 138.433594 328.148438 141.117188 C 324.941406 143.867188 321.710938 146.585938 318.429688 149.246094 C 313.238281 153.453125 308.183594 157.816406 303.117188 162.171875 C 292.710938 171.121094 292.710938 171.121094 287.851562 175.050781 C 283.851562 178.289062 279.964844 181.652344 276.082031 185.035156 C 272.375 188.253906 268.605469 191.375 264.773438 194.445312 C 263.332031 195.640625 262.003906 196.859375 260.710938 198.210938 C 258.566406 197.210938 256.78125 196.121094 254.957031 194.621094 C 254.464844 194.21875 253.972656 193.816406 253.464844 193.402344 C 252.941406 192.96875 252.417969 192.535156 251.878906 192.089844 C 250.746094 191.164062 249.613281 190.234375 248.480469 189.308594 C 247.613281 188.597656 247.613281 188.597656 246.730469 187.871094 C 244.070312 185.691406 241.398438 183.527344 238.722656 181.367188 C 237.675781 180.519531 236.628906 179.667969 235.582031 178.820312 C 235.066406 178.398438 234.546875 177.980469 234.011719 177.546875 C 232.441406 176.273438 230.871094 175 229.300781 173.726562 C 228.78125 173.308594 228.261719 172.886719 227.730469 172.453125 C 226.683594 171.609375 225.640625 170.761719 224.597656 169.914062 C 221.929688 167.753906 219.265625 165.59375 216.597656 163.433594 C 212.058594 159.753906 207.519531 156.078125 202.992188 152.378906 C 194.785156 145.671875 186.554688 138.996094 178.257812 132.402344 C 172.195312 127.578125 166.144531 122.746094 160.148438 117.835938 C 156.746094 115.054688 153.332031 112.292969 149.914062 109.527344 C 146.886719 107.074219 143.871094 104.613281 140.859375 102.140625 C 137.75 99.597656 134.601562 97.117188 131.4375 94.648438 C 126.566406 90.859375 121.796875 86.957031 117.035156 83.03125 C 113.558594 80.160156 110.054688 77.324219 106.519531 74.519531 C 99.46875 68.894531 92.488281 63.179688 85.507812 57.472656 C 80.570312 53.449219 75.621094 49.445312 70.675781 45.441406 C 66.484375 42.046875 62.296875 38.652344 58.109375 35.253906 C 57.683594 34.90625 57.253906 34.558594 56.8125 34.199219 C 47.679688 26.785156 47.679688 26.785156 43.976562 23.503906 C 43.976562 23.246094 43.976562 22.984375 43.976562 22.71875 Z M 43.976562 22.71875 "/>
<path style=" stroke:none;fill-rule:nonzero;fill:rgb(99.607843%,99.607843%,99.607843%);fill-opacity:1;" d="M 28.269531 39.957031 C 28.789062 39.957031 29.304688 39.957031 29.839844 39.957031 C 29.839844 40.472656 29.839844 40.988281 29.839844 41.523438 C 30.253906 41.691406 30.664062 41.859375 31.089844 42.035156 C 33.722656 43.503906 35.878906 45.46875 38.136719 47.445312 C 39.125 48.308594 40.117188 49.164062 41.109375 50.023438 C 41.84375 50.65625 41.84375 50.65625 42.589844 51.304688 C 44.445312 52.894531 46.34375 54.433594 48.246094 55.96875 C 52.25 59.210938 56.140625 62.578125 60.027344 65.960938 C 63.65625 69.109375 67.347656 72.15625 71.085938 75.175781 C 73.554688 77.207031 75.921875 79.335938 78.300781 81.46875 C 80.203125 83.136719 82.152344 84.734375 84.121094 86.324219 C 87.6875 89.210938 91.167969 92.179688 94.625 95.1875 C 98.675781 98.710938 102.777344 102.152344 106.953125 105.527344 C 110.46875 108.410156 113.910156 111.382812 117.359375 114.34375 C 123.042969 119.21875 128.753906 124.066406 134.578125 128.777344 C 138.601562 132.042969 142.507812 135.429688 146.417969 138.828125 C 149.269531 141.304688 152.152344 143.738281 155.09375 146.113281 C 159.082031 149.332031 162.949219 152.679688 166.8125 156.046875 C 170.535156 159.28125 174.328125 162.398438 178.199219 165.457031 C 179.828125 166.871094 179.828125 166.871094 181.398438 169.222656 C 180.304688 170.300781 180.304688 170.300781 179.1875 171.402344 C 178.207031 172.371094 177.226562 173.34375 176.246094 174.316406 C 175.765625 174.785156 175.289062 175.257812 174.796875 175.742188 C 172.363281 178.15625 170.015625 180.601562 167.78125 183.203125 C 163.78125 187.824219 159.355469 192.03125 155 196.3125 C 152.054688 199.222656 149.152344 202.121094 146.453125 205.261719 C 142.507812 209.851562 138.113281 214.007812 133.796875 218.25 C 130.328125 221.675781 126.996094 225.148438 123.820312 228.84375 C 121.082031 231.9375 118.078125 234.773438 115.125 237.660156 C 112.667969 240.082031 110.300781 242.53125 108.050781 245.144531 C 104.378906 249.390625 100.339844 253.265625 96.332031 257.195312 C 93.589844 259.902344 90.90625 262.613281 88.394531 265.535156 C 84.425781 270.140625 80.019531 274.316406 75.6875 278.574219 C 72.75 281.476562 69.855469 284.367188 67.164062 287.496094 C 63.058594 292.277344 58.46875 296.597656 53.980469 301.015625 C 50.421875 304.535156 46.984375 308.085938 43.726562 311.882812 C 41.355469 314.5625 38.78125 317.042969 36.222656 319.546875 C 35.175781 320.570312 34.128906 321.597656 33.085938 322.625 C 32.40625 323.289062 32.40625 323.289062 31.707031 323.96875 C 30.542969 325.105469 30.542969 325.105469 29.839844 326.695312 C 29.320312 326.695312 28.804688 326.695312 28.269531 326.695312 C 28.269531 232.070312 28.269531 137.445312 28.269531 39.957031 Z M 28.269531 39.957031 "/>
<path style=" stroke:none;fill-rule:nonzero;fill:rgb(99.215686%,99.215686%,99.215686%);fill-opacity:1;" d="M 483.730469 38.386719 C 483.730469 134.046875 483.730469 229.703125 483.730469 328.261719 C 477.582031 323.003906 477.582031 323.003906 474.992188 320.035156 C 471.628906 316.230469 468.1875 312.511719 464.710938 308.8125 C 462.523438 306.472656 460.375 304.105469 458.273438 301.6875 C 455.40625 298.402344 452.429688 295.234375 449.421875 292.074219 C 442.253906 284.503906 435.15625 276.878906 428.183594 269.125 C 421.640625 261.875 414.980469 254.730469 408.34375 247.566406 C 402.667969 241.441406 397.003906 235.304688 391.355469 229.148438 C 390.261719 227.957031 389.167969 226.769531 388.070312 225.578125 C 384.796875 222.023438 381.53125 218.460938 378.308594 214.859375 C 374.679688 210.828125 370.960938 206.886719 367.246094 202.941406 C 361.070312 196.386719 354.992188 189.753906 348.980469 183.050781 C 347.539062 181.464844 346.082031 179.894531 344.613281 178.332031 C 344.1875 177.878906 343.761719 177.421875 343.320312 176.953125 C 342.484375 176.0625 341.640625 175.171875 340.796875 174.289062 C 338.84375 172.207031 337.175781 170.320312 336.097656 167.65625 C 339.984375 164.097656 343.902344 160.609375 348.023438 157.324219 C 352.214844 153.949219 356.101562 150.3125 360.011719 146.625 C 362.820312 143.984375 365.667969 141.464844 368.6875 139.058594 C 373.390625 135.316406 377.714844 131.199219 382.09375 127.089844 C 385.386719 123.992188 388.777344 121.023438 392.226562 118.101562 C 398.273438 112.976562 404.199219 107.761719 410.007812 102.371094 C 413.609375 99.042969 417.308594 95.851562 421.046875 92.679688 C 426.417969 88.113281 431.699219 83.472656 436.882812 78.691406 C 440.433594 75.433594 444.074219 72.289062 447.75 69.171875 C 453.121094 64.605469 458.398438 59.96875 463.582031 55.191406 C 466.328125 52.667969 469.125 50.21875 471.949219 47.789062 C 472.386719 47.410156 472.824219 47.035156 473.273438 46.644531 C 474.777344 45.34375 476.285156 44.042969 477.792969 42.746094 C 478.285156 42.320312 478.777344 41.890625 479.285156 41.453125 C 482.855469 38.386719 482.855469 38.386719 483.730469 38.386719 Z M 483.730469 38.386719 "/>
<path style=" stroke:none;fill-rule:nonzero;fill:rgb(62.7451%,62.7451%,62.7451%);fill-opacity:1;" d="M 0 0 C 8.550781 0 17.101562 0 25.914062 0 C 25.914062 0.257812 25.914062 0.515625 25.914062 0.785156 C 25.25 0.957031 24.585938 1.125 23.902344 1.304688 C 16.464844 3.378906 10.675781 5.960938 6.28125 12.535156 C 3.242188 17.9375 1.375 22.789062 1.367188 29.070312 C 1.367188 29.617188 1.363281 30.160156 1.359375 30.722656 C 1.351562 32.546875 1.355469 34.375 1.359375 36.199219 C 1.359375 37.523438 1.355469 38.84375 1.351562 40.167969 C 1.339844 43.800781 1.339844 47.433594 1.34375 51.066406 C 1.34375 54.984375 1.332031 58.90625 1.328125 62.824219 C 1.3125 70.503906 1.308594 78.179688 1.308594 85.859375 C 1.308594 92.101562 1.304688 98.34375 1.300781 104.585938 C 1.285156 122.285156 1.277344 139.984375 1.28125 157.683594 C 1.28125 158.640625 1.28125 159.59375 1.28125 160.578125 C 1.28125 161.53125 1.28125 162.488281 1.28125 163.472656 C 1.28125 178.953125 1.265625 194.433594 1.242188 209.914062 C 1.21875 225.8125 1.210938 241.707031 1.210938 257.605469 C 1.210938 266.527344 1.207031 275.453125 1.191406 284.375 C 1.175781 291.976562 1.171875 299.574219 1.183594 307.175781 C 1.1875 311.050781 1.1875 314.925781 1.175781 318.800781 C 1.164062 322.355469 1.164062 325.90625 1.179688 329.457031 C 1.179688 330.738281 1.179688 332.019531 1.167969 333.300781 C 1.105469 343.34375 2.109375 352.824219 9.421875 360.382812 C 14.152344 364.953125 18.695312 366.957031 25.128906 368.214844 C 25.128906 368.476562 25.128906 368.734375 25.128906 369 C 16.835938 369 8.542969 369 0 369 C 0 247.230469 0 125.460938 0 0 Z M 0 0 "/>
<path style=" stroke:none;fill-rule:nonzero;fill:rgb(62.7451%,62.7451%,62.7451%);fill-opacity:1;" d="M 486.085938 0 C 494.636719 0 503.1875 0 512 0 C 512 121.769531 512 243.539062 512 369 C 503.964844 369 495.933594 369 487.65625 369 C 490.796875 367.433594 490.796875 367.433594 493.25 366.503906 C 500.398438 363.40625 505.855469 359.070312 508.859375 351.765625 C 510.785156 345.140625 510.652344 338.5625 510.640625 331.730469 C 510.640625 330.402344 510.644531 329.078125 510.648438 327.753906 C 510.660156 324.125 510.660156 320.496094 510.65625 316.867188 C 510.65625 312.945312 510.667969 309.027344 510.671875 305.109375 C 510.6875 297.433594 510.691406 289.761719 510.691406 282.089844 C 510.691406 275.851562 510.695312 269.613281 510.699219 263.375 C 510.714844 245.6875 510.722656 227.996094 510.71875 210.308594 C 510.71875 209.355469 510.71875 208.402344 510.71875 207.417969 C 510.71875 206.464844 510.71875 205.511719 510.71875 204.527344 C 510.71875 189.054688 510.734375 173.585938 510.757812 158.113281 C 510.78125 142.222656 510.789062 126.332031 510.789062 110.445312 C 510.789062 101.523438 510.792969 92.605469 510.808594 83.6875 C 510.824219 76.09375 510.828125 68.5 510.816406 60.90625 C 510.8125 57.035156 510.8125 53.160156 510.824219 49.289062 C 510.835938 45.742188 510.835938 42.191406 510.820312 38.644531 C 510.820312 37.363281 510.820312 36.085938 510.832031 34.804688 C 510.894531 24.976562 509.804688 15.953125 502.578125 8.617188 C 497.550781 4.238281 492.597656 2.082031 486.085938 0.785156 C 486.085938 0.523438 486.085938 0.265625 486.085938 0 Z M 486.085938 0 "/>
<path style=" stroke:none;fill-rule:nonzero;fill:rgb(96.862745%,96.862745%,96.862745%);fill-opacity:1;" d="M 486.085938 0 C 494.636719 0 503.1875 0 512 0 C 512 9.046875 512 18.097656 512 27.421875 C 511.742188 27.421875 511.480469 27.421875 511.214844 27.421875 C 511.042969 26.710938 510.871094 26 510.691406 25.269531 C 508.480469 16.789062 505.625 10.421875 498.378906 5.097656 C 494.539062 2.921875 490.351562 1.84375 486.085938 0.785156 C 486.085938 0.523438 486.085938 0.265625 486.085938 0 Z M 486.085938 0 "/>
<path style=" stroke:none;fill-rule:nonzero;fill:rgb(96.862745%,96.862745%,96.862745%);fill-opacity:1;" d="M 0 0 C 8.550781 0 17.101562 0 25.914062 0 C 25.914062 0.257812 25.914062 0.515625 25.914062 0.785156 C 25.25 0.957031 24.585938 1.125 23.902344 1.304688 C 15.847656 3.550781 9.828125 6.503906 5.480469 13.898438 C 3.300781 17.964844 1.988281 22.195312 0.785156 26.636719 C 0.527344 26.636719 0.265625 26.636719 0 26.636719 C 0 17.847656 0 9.054688 0 0 Z M 0 0 "/>
<path style=" stroke:none;fill-rule:nonzero;fill:rgb(96.470588%,96.470588%,96.470588%);fill-opacity:1;" d="M 511.214844 340.796875 C 511.472656 340.796875 511.734375 340.796875 512 340.796875 C 512 350.101562 512 359.410156 512 369 C 503.964844 369 495.933594 369 487.65625 369 C 490.796875 367.433594 490.796875 367.433594 493.25 366.503906 C 500.421875 363.394531 505.871094 359.09375 508.859375 351.765625 C 509.855469 348.136719 510.605469 344.507812 511.214844 340.796875 Z M 511.214844 340.796875 "/>
<path style=" stroke:none;fill-rule:nonzero;fill:rgb(96.470588%,96.470588%,96.470588%);fill-opacity:1;" d="M 0 345.496094 C 0.257812 346.273438 0.519531 347.046875 0.785156 347.847656 C 1.304688 347.847656 1.820312 347.847656 2.355469 347.847656 C 2.507812 348.332031 2.664062 348.816406 2.820312 349.3125 C 5.3125 356.347656 9.699219 362.414062 16.492188 365.867188 C 19.34375 366.773438 22.214844 367.535156 25.128906 368.214844 C 25.128906 368.476562 25.128906 368.734375 25.128906 369 C 16.835938 369 8.542969 369 0 369 C 0 361.242188 0 353.488281 0 345.496094 Z M 0 345.496094 "/>
</g>
</svg>
